#!OML:ASF H:\MichaelJackson\Top Level 1\Subject 1\Session 1\male.ASF
:FULLY-SPECIFIED
:DEGREES
223
root 4.48411 16.2278 -16.5961 -6.0535 22.6516 -3.03576
lowerback 14.0253 -6.62287 -7.27818
upperback 2.0744 -9.73562 1.99275
thorax -4.00667 -4.72625 7.72303
lowerneck -5.04609 -0.899493 -0.823831
upperneck -2.6873 -1.13569 2.8244
head 0.0323711 -0.549476 0.982196
rclavicle -7.33018e-015 -5.56597e-015
rhumerus -57.1836 -17.3228 -71.7203
rradius 83.7713
rwrist -4.10839
rhand -44.084 -61.9884
rfingers 7.12502
rthumb -16.9021 91.2729
lclavicle -7.33018e-015 -5.56597e-015
lhumerus -37.5828 -41.1334 101.936
lradius 56.1984
lwrist 12.8723
lhand 30.17 16.4385
lfingers 7.12502
lthumb 53.8597 35.371
rfemur -71.127 -47.4516 21.386
rtibia 122.219
rfoot 20.5696 13.3409
rtoes -10.7271
lfemur -24.4645 30.7429 -13.839
ltibia 48.0599
lfoot -14.8565 12.7703
ltoes -9.15594
224
root 4.44521 16.239 -16.5743 -5.59869 23.461 -3.21254
lowerback 13.1941 -6.8476 -7.02275
upperback 1.91848 -9.9484 2.03032
thorax -3.72029 -4.84958 7.53393
lowerneck -5.04751 -1.04865 -0.886263
upperneck -2.49737 -1.33492 2.8987
head 0.0959382 -0.646776 1.01249
rclavicle -7.11152e-014 2.38542e-015
rhumerus -57.5183 -16.2629 -73.9877
rradius 85.431
rwrist -1.87778
rhand -43.328 -56.5826
rfingers 7.12502
rthumb -16.1742 -85.9277
lclavicle -7.11152e-014 2.38542e-015
lhumerus -38.6212 -41.746 103.602
lradius 56.0364
lwrist 11.8172
lhand 29.9897 16.1635
lfingers 7.12502
lthumb 53.6977 35.2039
rfemur -64.4078 -45.1087 16.1494
rtibia 119.584
rfoot 21.4924 10.7651
rtoes -4.1951
lfemur -25.1797 31.4425 -14.0065
ltibia 47.9019
lfoot -14.5917 13.3046
ltoes -8.72666
225
root 4.40786 16.2484 -16.5492 -5.14596 24.2596 -3.35946
lowerback 12.351 -7.08791 -6.76015
upperback 1.73253 -10.1866 2.05485
thorax -3.45894 -4.98264 7.32727
lowerneck -5.06854 -1.18573 -0.945285
upperneck -2.20217 -1.52084 2.95186
head 0.195018 -0.736649 1.03546
rclavicle -1.97095e-013 1.66979e-014
rhumerus -57.6866 -15.1088 -76.2883
rradius 86.9215
rwrist 0.245651
rhand -42.1312 -51.3112
rfingers 7.12502
rthumb -15.0216 -80.7462
lclavicle -1.97095e-013 1.66979e-014
lhumerus -39.8072 -42.0168 105.298
lradius 55.8362
lwrist 10.7933
lhand 29.7668 15.8409
lfingers 7.12502
lthumb 53.4972 35.0133
rfemur -58.2772 -41.9106 11.8789
rtibia 116.399
rfoot 21.8337 7.66876
rtoes 1.97231
lfemur -25.926 32.0484 -14.2128
ltibia 47.8586
lfoot -14.3886 13.902
ltoes -8.25483
226
root 4.37213 16.2546 -16.5211 -4.70261 25.0297 -3.45295
lowerback 11.5233 -7.3344 -6.49843
upperback 1.51583 -10.4409 2.05129
thorax -3.24175 -5.11965 7.09506
lowerneck -5.11174 -1.30986 -1.0017
upperneck -1.80272 -1.69219 2.98927
head 0.329932 -0.818448 1.05296
rclavicle -2.08475e-014 -1.19271e-015
rhumerus -57.7088 -13.7994 -78.628
rradius 88.2709
rwrist 1.75393
rhand -40.7463 -46.5639
rfingers 7.12502
rthumb -13.6871 -76.0938
lclavicle -2.08475e-014 -1.19271e-015
lhumerus -41.1301 -41.9523 106.991
lradius 55.6194
lwrist 9.88522
lhand 29.541 15.5486
lfingers 7.12502
lthumb 53.2939 34.8531
rfemur -52.7936 -38.1555 8.60165
rtibia 112.775
rfoot 21.6083 3.86236
rtoes 7.99169
lfemur -26.6863 32.5919 -14.456
ltibia 47.9492
lfoot -14.2867 14.4309
ltoes -7.58487
227
root 4.33824 16.2574 -16.4904 -4.2578 25.7416 -3.4601
lowerback 10.7038 -7.56706 -6.2571
upperback 1.27889 -10.6859 2.00569
thorax -3.05722 -5.24899 6.82937
lowerneck -5.17166 -1.43033 -1.05415
upperneck -1.32786 -1.86064 3.01349
head 0.491445 -0.898295 1.06544
rclavicle -1.51573e-013 3.45885e-014
rhumerus -57.6204 -12.3171 -80.9945
rradius 89.5239
rwrist 2.3212
rhand -39.3087 -42.4994
rfingers 7.12502
rthumb -12.3013 -72.1176
lclavicle -1.51573e-013 3.45885e-014
lhumerus -42.558 -41.6183 108.651
lradius 55.418
lwrist 9.18712
lhand 29.3567 15.4023
lfingers 7.12502
lthumb 53.1277 34.8135
rfemur -47.9173 -34.0937 6.18164
rtibia 108.791
rfoot 20.9027 -0.688108
rtoes 14.1871
lfemur -27.4063 33.1149 -14.7536
ltibia 48.0552
lfoot -14.231 14.7614
ltoes -6.69746
228
root 4.30508 16.2222 -16.4561 -3.79439 26.3647 -3.35697
lowerback 9.89473 -7.77552 -6.03173
upperback 1.02504 -10.9068 1.90032
thorax -2.90983 -5.36329 6.50974
lowerneck -5.24858 -1.54854 -1.10298
upperneck -0.806038 -2.0274 3.03496
head 0.671326 -0.976925 1.07622
rclavicle 7.31155e-014 2.78299e-015
rhumerus -57.4961 -10.6476 -83.3842
rradius 90.7368
rwrist 1.92631
rhand -37.8185 -39.1479
rfingers 7.12502
rthumb -10.8642 -68.8468
lclavicle 7.31155e-014 2.78299e-015
lhumerus -44.0626 -41.086 110.244
lradius 55.2534
lwrist 8.77934
lhand 29.1764 15.4786
lfingers 7.12502
lthumb 52.965 34.9931
rfemur -43.7415 -29.9776 4.35715
rtibia 104.741
rfoot 19.7149 -5.76662
rtoes 20.977
lfemur -28.2082 33.6546 -15.1116
ltibia 48.2717
lfoot -14.1874 14.7826
ltoes -5.6022
